<svg xmlns="http://www.w3.org/2000/svg" width="24" height="19" viewBox="0 0 24 19"><defs><clipPath id="32t5a"><path fill="#fff" d="M0 19V0h24v19zM2 4.481v10a2.5 2.5 0 0 0 2.5 2.5h15a2.5 2.5 0 0 0 2.5-2.5v-10a2.5 2.5 0 0 0-2.5-2.5h-15a2.5 2.5 0 0 0-2.5 2.5zm14.74 5L8.203 14.41V4.552z"/></clipPath></defs><g><g><path fill="#6a0099" d="M4.5 1.981h15a2.5 2.5 0 0 1 2.5 2.5v10a2.5 2.5 0 0 1-2.5 2.5h-15a2.5 2.5 0 0 1-2.5-2.5v-10a2.5 2.5 0 0 1 2.5-2.5zm3.703 2.571v9.858l8.537-4.93z"/><path fill="none" stroke="#fff" stroke-linecap="round" stroke-linejoin="round" stroke-miterlimit="20" stroke-width="4" d="M4.5 1.981h15a2.5 2.5 0 0 1 2.5 2.5v10a2.5 2.5 0 0 1-2.5 2.5h-15a2.5 2.5 0 0 1-2.5-2.5v-10a2.5 2.5 0 0 1 2.5-2.5zm3.703 2.571v9.858l8.537-4.93z" clip-path="url(&quot;#32t5a&quot;)"/></g></g></svg>