<svg xmlns="http://www.w3.org/2000/svg" width="16" height="15" viewBox="0 0 16 15"><defs><clipPath id="6vdla"><path fill="#fff" d="M0 8h16v3H0zm0-4h16v3H0zm0-4h16v3.001H0zm0 12h16v3.001H0z"/></clipPath></defs><g><g><path fill="#333" d="M0 8h16v3H0zm0-4h16v3H0zm0-4h16v3.001H0zm0 12h16v3.001H0z"/><path fill="none" stroke="#333" stroke-linecap="round" stroke-linejoin="round" stroke-miterlimit="20" stroke-width="2" d="M0 8h16v3H0zm0-4h16v3H0zm0-4h16v3.001H0zm0 12h16v3.001H0z" clip-path="url(&quot;#6vdla&quot;)"/></g></g></svg>